<svg xmlns="http://www.w3.org/2000/svg" viewBox="0 0 48 48" fill="none">
  <circle cx="24" cy="24" r="22" fill="#0ea5e9" opacity="0.1" stroke="#0ea5e9" stroke-width="2"/>
  <circle cx="24" cy="24" r="16" fill="#0ea5e9" opacity="0.15"/>
  <path d="M24 12C17.373 12 12 17.373 12 24s5.373 12 12 12 12-5.373 12-12S30.627 12 24 12zm0 2c5.523 0 10 4.477 10 10s-4.477 10-10 10-10-4.477-10-10 4.477-10 10-10z" fill="#0ea5e9"/>
  <circle cx="24" cy="24" r="5" fill="#0284c7"/>
  <circle cx="24" cy="24" r="2" fill="#fff"/>
  <rect x="32" y="20" width="6" height="4" rx="1" fill="#0284c7" transform="rotate(15 32 20)"/>
  <path d="M24 8v4M24 36v4M8 24h4M36 24h4" stroke="#0ea5e9" stroke-width="1.5" stroke-linecap="round" opacity="0.5"/>
</svg>
